<?xml version="1.0" encoding="utf-8"?>
<svg xmlns="http://www.w3.org/2000/svg" version="1.1" x="0px" y="0px" viewBox="0 0 100 125" style="enable-background:new 0 0 100 100;">
  <g style="" transform="matrix(1.240435, 0, 0, 1.240435, -14.375796, 0.337009)">
    <path d="M50,0C29.883,0,13.574,16.309,13.574,36.426c0,15.803,10.064,29.254,24.133,34.297L50,100l12.293-29.277   c14.068-5.043,24.133-18.494,24.133-34.297C86.426,16.309,70.117,0,50,0z M50,62.96c-14.647,0-26.521-11.874-26.521-26.521   S35.353,9.918,50,9.918c14.646,0,26.521,11.874,26.521,26.521S64.647,62.961,50,62.96z"/>
  </g>
</svg>